<mxfile host="app.diagrams.net" agent="Mozilla/5.0 (Windows NT 10.0; Win64; x64) AppleWebKit/537.36 (KHTML, like Gecko) Chrome/128.0.0.0 Safari/537.36" version="26.2.14">
  <diagram name="Page-1" id="IYHbUJrp3uOQo-vc8xfo">
    <mxGraphModel dx="1456" dy="775" grid="1" gridSize="10" guides="1" tooltips="1" connect="1" arrows="1" fold="1" page="1" pageScale="1" pageWidth="850" pageHeight="1100" math="0" shadow="0">
      <root>
        <mxCell id="0" />
        <mxCell id="1" parent="0" />
        <mxCell id="ZUtKENKd1uAMWNcSx0mv-3" value="" style="edgeStyle=orthogonalEdgeStyle;rounded=0;orthogonalLoop=1;jettySize=auto;html=1;" edge="1" parent="1" source="ZUtKENKd1uAMWNcSx0mv-1" target="ZUtKENKd1uAMWNcSx0mv-2">
          <mxGeometry relative="1" as="geometry" />
        </mxCell>
        <mxCell id="ZUtKENKd1uAMWNcSx0mv-1" value="&lt;b&gt;Start&lt;/b&gt;" style="rounded=1;whiteSpace=wrap;html=1;" vertex="1" parent="1">
          <mxGeometry x="160" y="130" width="80" height="50" as="geometry" />
        </mxCell>
        <mxCell id="ZUtKENKd1uAMWNcSx0mv-5" value="" style="edgeStyle=orthogonalEdgeStyle;rounded=0;orthogonalLoop=1;jettySize=auto;html=1;" edge="1" parent="1" source="ZUtKENKd1uAMWNcSx0mv-2" target="ZUtKENKd1uAMWNcSx0mv-4">
          <mxGeometry relative="1" as="geometry" />
        </mxCell>
        <mxCell id="ZUtKENKd1uAMWNcSx0mv-2" value="User requests a list of &quot;profitable&quot; contracts&lt;br&gt;(Runs program)" style="rounded=0;whiteSpace=wrap;html=1;" vertex="1" parent="1">
          <mxGeometry x="80" y="210" width="240" height="60" as="geometry" />
        </mxCell>
        <mxCell id="ZUtKENKd1uAMWNcSx0mv-15" value="" style="edgeStyle=orthogonalEdgeStyle;rounded=0;orthogonalLoop=1;jettySize=auto;html=1;" edge="1" parent="1" source="ZUtKENKd1uAMWNcSx0mv-4" target="ZUtKENKd1uAMWNcSx0mv-14">
          <mxGeometry relative="1" as="geometry" />
        </mxCell>
        <mxCell id="ZUtKENKd1uAMWNcSx0mv-4" value="Request goes to data processing." style="rounded=0;whiteSpace=wrap;html=1;" vertex="1" parent="1">
          <mxGeometry x="80" y="300" width="240" height="60" as="geometry" />
        </mxCell>
        <mxCell id="ZUtKENKd1uAMWNcSx0mv-11" value="" style="edgeStyle=orthogonalEdgeStyle;rounded=0;orthogonalLoop=1;jettySize=auto;html=1;" edge="1" parent="1" source="ZUtKENKd1uAMWNcSx0mv-6" target="ZUtKENKd1uAMWNcSx0mv-10">
          <mxGeometry relative="1" as="geometry" />
        </mxCell>
        <mxCell id="ZUtKENKd1uAMWNcSx0mv-6" value="Instances of the Contract Class are created with the relevant info." style="rounded=0;whiteSpace=wrap;html=1;" vertex="1" parent="1">
          <mxGeometry x="80" y="480" width="240" height="60" as="geometry" />
        </mxCell>
        <mxCell id="ZUtKENKd1uAMWNcSx0mv-8" value="&lt;b&gt;&lt;font style=&quot;font-size: 19px; background-color: rgb(225, 213, 231);&quot;&gt;Ideal Process Flow&lt;/font&gt;&lt;/b&gt;" style="text;html=1;align=center;verticalAlign=middle;whiteSpace=wrap;rounded=0;" vertex="1" parent="1">
          <mxGeometry x="80" y="70" width="240" height="30" as="geometry" />
        </mxCell>
        <mxCell id="ZUtKENKd1uAMWNcSx0mv-20" value="" style="edgeStyle=orthogonalEdgeStyle;rounded=0;orthogonalLoop=1;jettySize=auto;html=1;" edge="1" parent="1" source="ZUtKENKd1uAMWNcSx0mv-9" target="ZUtKENKd1uAMWNcSx0mv-18">
          <mxGeometry relative="1" as="geometry" />
        </mxCell>
        <mxCell id="ZUtKENKd1uAMWNcSx0mv-9" value="Contracts are filtered for profitability" style="rounded=0;whiteSpace=wrap;html=1;" vertex="1" parent="1">
          <mxGeometry x="80" y="750" width="240" height="60" as="geometry" />
        </mxCell>
        <mxCell id="ZUtKENKd1uAMWNcSx0mv-13" value="" style="edgeStyle=orthogonalEdgeStyle;rounded=0;orthogonalLoop=1;jettySize=auto;html=1;" edge="1" parent="1" source="ZUtKENKd1uAMWNcSx0mv-10" target="ZUtKENKd1uAMWNcSx0mv-12">
          <mxGeometry relative="1" as="geometry" />
        </mxCell>
        <mxCell id="ZUtKENKd1uAMWNcSx0mv-10" value="For each contract instance, the correct pricing method is identified and used.&amp;nbsp;" style="rounded=0;whiteSpace=wrap;html=1;" vertex="1" parent="1">
          <mxGeometry x="80" y="570" width="240" height="60" as="geometry" />
        </mxCell>
        <mxCell id="ZUtKENKd1uAMWNcSx0mv-16" value="" style="edgeStyle=orthogonalEdgeStyle;rounded=0;orthogonalLoop=1;jettySize=auto;html=1;" edge="1" parent="1" source="ZUtKENKd1uAMWNcSx0mv-12" target="ZUtKENKd1uAMWNcSx0mv-9">
          <mxGeometry relative="1" as="geometry" />
        </mxCell>
        <mxCell id="ZUtKENKd1uAMWNcSx0mv-12" value="Theoretical contract price (using Black-Scholes for now) is stored into the contract instance" style="rounded=0;whiteSpace=wrap;html=1;" vertex="1" parent="1">
          <mxGeometry x="80" y="660" width="240" height="60" as="geometry" />
        </mxCell>
        <mxCell id="ZUtKENKd1uAMWNcSx0mv-19" value="" style="edgeStyle=orthogonalEdgeStyle;rounded=0;orthogonalLoop=1;jettySize=auto;html=1;" edge="1" parent="1" source="ZUtKENKd1uAMWNcSx0mv-14" target="ZUtKENKd1uAMWNcSx0mv-6">
          <mxGeometry relative="1" as="geometry" />
        </mxCell>
        <mxCell id="ZUtKENKd1uAMWNcSx0mv-14" value="Data processing scrubs through .csv to fetch relevant parameters for each contract" style="rounded=0;whiteSpace=wrap;html=1;" vertex="1" parent="1">
          <mxGeometry x="80" y="390" width="240" height="60" as="geometry" />
        </mxCell>
        <mxCell id="ZUtKENKd1uAMWNcSx0mv-17" value="&lt;b&gt;End&lt;/b&gt;" style="rounded=1;whiteSpace=wrap;html=1;" vertex="1" parent="1">
          <mxGeometry x="160" y="930" width="80" height="50" as="geometry" />
        </mxCell>
        <mxCell id="ZUtKENKd1uAMWNcSx0mv-21" value="" style="edgeStyle=orthogonalEdgeStyle;rounded=0;orthogonalLoop=1;jettySize=auto;html=1;" edge="1" parent="1" source="ZUtKENKd1uAMWNcSx0mv-18" target="ZUtKENKd1uAMWNcSx0mv-17">
          <mxGeometry relative="1" as="geometry" />
        </mxCell>
        <mxCell id="ZUtKENKd1uAMWNcSx0mv-18" value="&lt;b&gt;Contracts are outputted to the user&lt;/b&gt;" style="rounded=0;whiteSpace=wrap;html=1;" vertex="1" parent="1">
          <mxGeometry x="80" y="840" width="240" height="60" as="geometry" />
        </mxCell>
        <mxCell id="ZUtKENKd1uAMWNcSx0mv-22" value="&lt;b style=&quot;forced-color-adjust: none; color: rgb(0, 0, 0); font-family: Helvetica; font-size: 12px; font-style: normal; font-variant-ligatures: normal; font-variant-caps: normal; letter-spacing: normal; orphans: 2; text-align: center; text-indent: 0px; text-transform: none; widows: 2; word-spacing: 0px; -webkit-text-stroke-width: 0px; white-space: normal; text-decoration-thickness: initial; text-decoration-style: initial; text-decoration-color: initial;&quot;&gt;&lt;font style=&quot;forced-color-adjust: none; font-size: 19px; background-color: rgb(154, 199, 191);&quot;&gt;Factory Method Diagram&lt;/font&gt;&lt;/b&gt;" style="text;whiteSpace=wrap;html=1;" vertex="1" parent="1">
          <mxGeometry x="1030" y="70" width="240" height="50" as="geometry" />
        </mxCell>
        <mxCell id="ZUtKENKd1uAMWNcSx0mv-23" value="ContractFactory.py" style="swimlane;whiteSpace=wrap;html=1;" vertex="1" parent="1">
          <mxGeometry x="645" y="720" width="350" height="200" as="geometry" />
        </mxCell>
        <mxCell id="ZUtKENKd1uAMWNcSx0mv-24" value="Call Option" style="whiteSpace=wrap;html=1;" vertex="1" parent="ZUtKENKd1uAMWNcSx0mv-23">
          <mxGeometry x="20" y="140" width="80" height="20" as="geometry" />
        </mxCell>
        <mxCell id="ZUtKENKd1uAMWNcSx0mv-25" value="Put Option" style="whiteSpace=wrap;html=1;" vertex="1" parent="ZUtKENKd1uAMWNcSx0mv-23">
          <mxGeometry x="142.5" y="140" width="75" height="20" as="geometry" />
        </mxCell>
        <mxCell id="ZUtKENKd1uAMWNcSx0mv-27" value="&lt;b&gt;&lt;font style=&quot;color: rgb(0, 0, 0); background-color: rgb(255, 153, 153);&quot;&gt;Subclasses&lt;/font&gt;&lt;/b&gt;" style="text;html=1;align=center;verticalAlign=middle;resizable=0;points=[];autosize=1;strokeColor=none;fillColor=none;" vertex="1" parent="ZUtKENKd1uAMWNcSx0mv-23">
          <mxGeometry x="15" y="80" width="90" height="30" as="geometry" />
        </mxCell>
        <mxCell id="ZUtKENKd1uAMWNcSx0mv-26" value="Others etc." style="whiteSpace=wrap;html=1;" vertex="1" parent="ZUtKENKd1uAMWNcSx0mv-23">
          <mxGeometry x="251" y="140" width="80" height="20" as="geometry" />
        </mxCell>
        <mxCell id="ZUtKENKd1uAMWNcSx0mv-32" value="" style="endArrow=none;html=1;rounded=0;entryX=0.5;entryY=0;entryDx=0;entryDy=0;" edge="1" parent="ZUtKENKd1uAMWNcSx0mv-23">
          <mxGeometry width="50" height="50" relative="1" as="geometry">
            <mxPoint x="59.860000000000014" y="120" as="sourcePoint" />
            <mxPoint x="59.860000000000014" y="140" as="targetPoint" />
          </mxGeometry>
        </mxCell>
        <mxCell id="ZUtKENKd1uAMWNcSx0mv-31" value="" style="endArrow=none;html=1;rounded=0;entryX=0.5;entryY=0;entryDx=0;entryDy=0;" edge="1" parent="ZUtKENKd1uAMWNcSx0mv-23" target="ZUtKENKd1uAMWNcSx0mv-26">
          <mxGeometry width="50" height="50" relative="1" as="geometry">
            <mxPoint x="290" y="120" as="sourcePoint" />
            <mxPoint x="320" y="-30" as="targetPoint" />
          </mxGeometry>
        </mxCell>
        <mxCell id="ZUtKENKd1uAMWNcSx0mv-33" value="" style="endArrow=none;html=1;rounded=0;" edge="1" parent="ZUtKENKd1uAMWNcSx0mv-23">
          <mxGeometry width="50" height="50" relative="1" as="geometry">
            <mxPoint x="60" y="120" as="sourcePoint" />
            <mxPoint x="290" y="120" as="targetPoint" />
          </mxGeometry>
        </mxCell>
        <mxCell id="ZUtKENKd1uAMWNcSx0mv-51" value="Base Contract" style="whiteSpace=wrap;html=1;" vertex="1" parent="ZUtKENKd1uAMWNcSx0mv-23">
          <mxGeometry x="110" y="50" width="140" height="30" as="geometry" />
        </mxCell>
        <mxCell id="ZUtKENKd1uAMWNcSx0mv-79" value="" style="endArrow=none;html=1;rounded=0;exitX=0.5;exitY=0;exitDx=0;exitDy=0;entryX=0.5;entryY=1;entryDx=0;entryDy=0;" edge="1" parent="ZUtKENKd1uAMWNcSx0mv-23" source="ZUtKENKd1uAMWNcSx0mv-25" target="ZUtKENKd1uAMWNcSx0mv-51">
          <mxGeometry width="50" height="50" relative="1" as="geometry">
            <mxPoint x="650" y="-110" as="sourcePoint" />
            <mxPoint x="700" y="-160" as="targetPoint" />
          </mxGeometry>
        </mxCell>
        <mxCell id="ZUtKENKd1uAMWNcSx0mv-34" value="PricingFactory.py" style="swimlane;whiteSpace=wrap;html=1;" vertex="1" parent="1">
          <mxGeometry x="1175" y="720" width="370" height="200" as="geometry" />
        </mxCell>
        <mxCell id="ZUtKENKd1uAMWNcSx0mv-37" value="&lt;b&gt;&lt;font style=&quot;color: rgb(0, 0, 0); background-color: rgb(255, 153, 153);&quot;&gt;Subclasses&lt;/font&gt;&lt;/b&gt;" style="text;html=1;align=center;verticalAlign=middle;resizable=0;points=[];autosize=1;strokeColor=none;fillColor=none;" vertex="1" parent="ZUtKENKd1uAMWNcSx0mv-34">
          <mxGeometry x="15" y="70" width="90" height="30" as="geometry" />
        </mxCell>
        <mxCell id="ZUtKENKd1uAMWNcSx0mv-39" value="" style="endArrow=classic;html=1;rounded=0;exitX=0.536;exitY=0;exitDx=0;exitDy=0;exitPerimeter=0;" edge="1" parent="ZUtKENKd1uAMWNcSx0mv-34">
          <mxGeometry width="50" height="50" relative="1" as="geometry">
            <mxPoint x="177.21" y="70" as="sourcePoint" />
            <mxPoint x="177.41000000000005" y="130" as="targetPoint" />
          </mxGeometry>
        </mxCell>
        <mxCell id="ZUtKENKd1uAMWNcSx0mv-35" value="Black Scholes" style="whiteSpace=wrap;html=1;" vertex="1" parent="ZUtKENKd1uAMWNcSx0mv-34">
          <mxGeometry x="20" y="130" width="80" height="30" as="geometry" />
        </mxCell>
        <mxCell id="ZUtKENKd1uAMWNcSx0mv-36" value="Monte Carlo" style="whiteSpace=wrap;html=1;" vertex="1" parent="ZUtKENKd1uAMWNcSx0mv-34">
          <mxGeometry x="140" y="130" width="75" height="30" as="geometry" />
        </mxCell>
        <mxCell id="ZUtKENKd1uAMWNcSx0mv-38" value="Ect. (Binomial or future methods)" style="whiteSpace=wrap;html=1;" vertex="1" parent="ZUtKENKd1uAMWNcSx0mv-34">
          <mxGeometry x="230" y="130" width="120" height="30" as="geometry" />
        </mxCell>
        <mxCell id="ZUtKENKd1uAMWNcSx0mv-40" value="" style="endArrow=none;html=1;rounded=0;entryX=0.5;entryY=0;entryDx=0;entryDy=0;" edge="1" parent="ZUtKENKd1uAMWNcSx0mv-34">
          <mxGeometry width="50" height="50" relative="1" as="geometry">
            <mxPoint x="59.860000000000014" y="110" as="sourcePoint" />
            <mxPoint x="59.860000000000014" y="130" as="targetPoint" />
          </mxGeometry>
        </mxCell>
        <mxCell id="ZUtKENKd1uAMWNcSx0mv-41" value="" style="endArrow=none;html=1;rounded=0;entryX=0.5;entryY=0;entryDx=0;entryDy=0;" edge="1" parent="ZUtKENKd1uAMWNcSx0mv-34" target="ZUtKENKd1uAMWNcSx0mv-38">
          <mxGeometry width="50" height="50" relative="1" as="geometry">
            <mxPoint x="290" y="110" as="sourcePoint" />
            <mxPoint x="320" y="-40" as="targetPoint" />
          </mxGeometry>
        </mxCell>
        <mxCell id="ZUtKENKd1uAMWNcSx0mv-42" value="" style="endArrow=none;html=1;rounded=0;" edge="1" parent="ZUtKENKd1uAMWNcSx0mv-34">
          <mxGeometry width="50" height="50" relative="1" as="geometry">
            <mxPoint x="60" y="110" as="sourcePoint" />
            <mxPoint x="290" y="110" as="targetPoint" />
          </mxGeometry>
        </mxCell>
        <mxCell id="ZUtKENKd1uAMWNcSx0mv-43" value="Select Pricing Model" style="whiteSpace=wrap;html=1;" vertex="1" parent="ZUtKENKd1uAMWNcSx0mv-34">
          <mxGeometry x="107.5" y="40" width="140" height="30" as="geometry" />
        </mxCell>
        <mxCell id="ZUtKENKd1uAMWNcSx0mv-52" value="" style="shape=flexArrow;endArrow=classic;html=1;rounded=0;" edge="1" parent="1">
          <mxGeometry width="50" height="50" relative="1" as="geometry">
            <mxPoint x="825" y="620" as="sourcePoint" />
            <mxPoint x="825" y="700" as="targetPoint" />
          </mxGeometry>
        </mxCell>
        <mxCell id="ZUtKENKd1uAMWNcSx0mv-53" value="Creates Contract Instances" style="edgeLabel;html=1;align=center;verticalAlign=middle;resizable=0;points=[];" vertex="1" connectable="0" parent="ZUtKENKd1uAMWNcSx0mv-52">
          <mxGeometry x="-0.3113" y="7" relative="1" as="geometry">
            <mxPoint x="-107" y="3" as="offset" />
          </mxGeometry>
        </mxCell>
        <mxCell id="ZUtKENKd1uAMWNcSx0mv-54" value="" style="shape=flexArrow;endArrow=classic;html=1;rounded=0;" edge="1" parent="1">
          <mxGeometry width="50" height="50" relative="1" as="geometry">
            <mxPoint x="1135" y="879.66" as="sourcePoint" />
            <mxPoint x="1015" y="879.66" as="targetPoint" />
          </mxGeometry>
        </mxCell>
        <mxCell id="ZUtKENKd1uAMWNcSx0mv-55" value="Send Calculated Price" style="edgeLabel;html=1;align=center;verticalAlign=middle;resizable=0;points=[];" vertex="1" connectable="0" parent="ZUtKENKd1uAMWNcSx0mv-54">
          <mxGeometry x="-0.3113" y="7" relative="1" as="geometry">
            <mxPoint x="-19" y="-37" as="offset" />
          </mxGeometry>
        </mxCell>
        <mxCell id="ZUtKENKd1uAMWNcSx0mv-56" value="DataFactory.py" style="swimlane;whiteSpace=wrap;html=1;" vertex="1" parent="1">
          <mxGeometry x="645" y="470" width="350" height="120" as="geometry" />
        </mxCell>
        <mxCell id="ZUtKENKd1uAMWNcSx0mv-65" value="ContractLoader" style="whiteSpace=wrap;html=1;" vertex="1" parent="ZUtKENKd1uAMWNcSx0mv-56">
          <mxGeometry x="110" y="50" width="140" height="30" as="geometry" />
        </mxCell>
        <mxCell id="ZUtKENKd1uAMWNcSx0mv-66" value="&lt;h1 style=&quot;margin-top: 0px;&quot;&gt;&lt;span style=&quot;background-color: transparent; color: light-dark(rgb(0, 0, 0), rgb(255, 255, 255));&quot;&gt;Note:&lt;br&gt;&lt;/span&gt;&lt;span style=&quot;font-size: 12px; font-weight: 400;&quot;&gt;I am still figuring out the best place to call the price calculation. If i call it in the data factory then i allow for only creating profitable contracts. If i call in the ContractFactory i give myself flexibility to define pricing terms for each type of contract.&lt;/span&gt;&lt;/h1&gt;" style="text;html=1;whiteSpace=wrap;overflow=hidden;rounded=0;" vertex="1" parent="1">
          <mxGeometry x="1605" y="735" width="400" height="170" as="geometry" />
        </mxCell>
        <mxCell id="ZUtKENKd1uAMWNcSx0mv-67" value="&lt;b&gt;contract_data.csv&lt;br&gt;&lt;/b&gt;used as a proxy for a database" style="rhombus;whiteSpace=wrap;html=1;" vertex="1" parent="1">
          <mxGeometry x="1090" y="375" width="220" height="110" as="geometry" />
        </mxCell>
        <mxCell id="ZUtKENKd1uAMWNcSx0mv-69" value="" style="edgeStyle=orthogonalEdgeStyle;rounded=0;orthogonalLoop=1;jettySize=auto;html=1;" edge="1" parent="1" source="ZUtKENKd1uAMWNcSx0mv-68" target="ZUtKENKd1uAMWNcSx0mv-67">
          <mxGeometry relative="1" as="geometry" />
        </mxCell>
        <mxCell id="ZUtKENKd1uAMWNcSx0mv-68" value="&lt;b&gt;Data_Processing.py&lt;/b&gt;&lt;br&gt;Creates csv" style="rounded=1;whiteSpace=wrap;html=1;" vertex="1" parent="1">
          <mxGeometry x="1365" y="400" width="170" height="60" as="geometry" />
        </mxCell>
        <mxCell id="ZUtKENKd1uAMWNcSx0mv-70" value="" style="edgeStyle=orthogonalEdgeStyle;rounded=0;orthogonalLoop=1;jettySize=auto;html=1;entryX=1;entryY=0.5;entryDx=0;entryDy=0;startArrow=classic;startFill=1;exitX=0;exitY=0.5;exitDx=0;exitDy=0;" edge="1" parent="1" source="ZUtKENKd1uAMWNcSx0mv-67" target="ZUtKENKd1uAMWNcSx0mv-56">
          <mxGeometry relative="1" as="geometry">
            <mxPoint x="1095" y="529.6600000000001" as="sourcePoint" />
            <mxPoint x="1025" y="529.6600000000001" as="targetPoint" />
          </mxGeometry>
        </mxCell>
        <mxCell id="ZUtKENKd1uAMWNcSx0mv-73" value="main.py" style="swimlane;whiteSpace=wrap;html=1;" vertex="1" parent="1">
          <mxGeometry x="645" y="250" width="350" height="120" as="geometry" />
        </mxCell>
        <mxCell id="ZUtKENKd1uAMWNcSx0mv-74" value="Ask for profitable contracts" style="whiteSpace=wrap;html=1;" vertex="1" parent="ZUtKENKd1uAMWNcSx0mv-73">
          <mxGeometry x="100" y="50" width="170" height="30" as="geometry" />
        </mxCell>
        <mxCell id="ZUtKENKd1uAMWNcSx0mv-77" value="" style="shape=flexArrow;endArrow=classic;html=1;rounded=0;" edge="1" parent="1">
          <mxGeometry width="50" height="50" relative="1" as="geometry">
            <mxPoint x="1025" y="799.29" as="sourcePoint" />
            <mxPoint x="1155" y="799.29" as="targetPoint" />
          </mxGeometry>
        </mxCell>
        <mxCell id="ZUtKENKd1uAMWNcSx0mv-78" value="Request Contract Pricing" style="edgeLabel;html=1;align=center;verticalAlign=middle;resizable=0;points=[];" vertex="1" connectable="0" parent="ZUtKENKd1uAMWNcSx0mv-77">
          <mxGeometry x="-0.3113" y="7" relative="1" as="geometry">
            <mxPoint x="15" y="-22" as="offset" />
          </mxGeometry>
        </mxCell>
        <mxCell id="ZUtKENKd1uAMWNcSx0mv-80" value="" style="shape=flexArrow;endArrow=classic;html=1;rounded=0;" edge="1" parent="1">
          <mxGeometry width="50" height="50" relative="1" as="geometry">
            <mxPoint x="819.41" y="380" as="sourcePoint" />
            <mxPoint x="819.41" y="460" as="targetPoint" />
          </mxGeometry>
        </mxCell>
        <mxCell id="ZUtKENKd1uAMWNcSx0mv-82" value="" style="shape=flexArrow;endArrow=classic;html=1;rounded=0;" edge="1" parent="1">
          <mxGeometry width="50" height="50" relative="1" as="geometry">
            <mxPoint x="625" y="830" as="sourcePoint" />
            <mxPoint x="625" y="310" as="targetPoint" />
            <Array as="points">
              <mxPoint x="545" y="830" />
              <mxPoint x="545" y="310" />
            </Array>
          </mxGeometry>
        </mxCell>
        <mxCell id="ZUtKENKd1uAMWNcSx0mv-83" value="Return Profitable Contracts" style="edgeLabel;html=1;align=center;verticalAlign=middle;resizable=0;points=[];" vertex="1" connectable="0" parent="ZUtKENKd1uAMWNcSx0mv-82">
          <mxGeometry x="-0.3113" y="7" relative="1" as="geometry">
            <mxPoint x="-88" y="-126" as="offset" />
          </mxGeometry>
        </mxCell>
        <mxCell id="ZUtKENKd1uAMWNcSx0mv-84" value="Filter Data" style="edgeLabel;html=1;align=center;verticalAlign=middle;resizable=0;points=[];" vertex="1" connectable="0" parent="1">
          <mxGeometry x="740" y="420.0033333333332" as="geometry" />
        </mxCell>
      </root>
    </mxGraphModel>
  </diagram>
</mxfile>
